<svg width="32" height="24" viewBox="0 0 32 24" fill="none" xmlns="http://www.w3.org/2000/svg">
<g clip-path="url(#clip0_814_2)">
<mask id="mask0_814_2" style="mask-type:luminance" maskUnits="userSpaceOnUse" x="0" y="0" width="32" height="24">
<path d="M32 0H0V24H32V0Z" fill="white"/>
</mask>
<g mask="url(#mask0_814_2)">
<path d="M29 0.5H3C1.61929 0.5 0.5 1.61929 0.5 3V21C0.5 22.3807 1.61929 23.5 3 23.5H29C30.3807 23.5 31.5 22.3807 31.5 21V3C31.5 1.61929 30.3807 0.5 29 0.5Z" fill="#8E5CF6" stroke="#535155"/>
</g>
<g clip-path="url(#clip1_814_2)">
<path d="M13.4292 15.5001H16.4698C18.0483 15.5001 18.9968 14.7056 18.9968 13.4036C18.9968 12.4393 18.3309 11.7271 17.3308 11.6238V11.5363C18.0588 11.4138 18.6276 10.7226 18.6276 9.94732C18.6276 8.80982 17.7919 8.10107 16.4033 8.10107H13.4292V15.5001ZM14.5781 11.2344V9.07582H16.1356C16.9869 9.07582 17.4848 9.4757 17.4848 10.1582C17.4848 10.8599 16.9563 11.2344 15.9413 11.2344H14.5781ZM14.5781 14.5262V12.1418H16.1723C17.2538 12.1418 17.8234 12.5469 17.8234 13.3213C17.8234 14.1053 17.2748 14.5262 16.2388 14.5262H14.5781Z" fill="white"/>
<path d="M9 8.5C9 7.57174 9.36875 6.6815 10.0251 6.02513C10.6815 5.36875 11.5717 5 12.5 5H19.5C20.4283 5 21.3185 5.36875 21.9749 6.02513C22.6313 6.6815 23 7.57174 23 8.5V15.5C23 16.4283 22.6313 17.3185 21.9749 17.9749C21.3185 18.6313 20.4283 19 19.5 19H12.5C11.5717 19 10.6815 18.6313 10.0251 17.9749C9.36875 17.3185 9 16.4283 9 15.5V8.5ZM12.5 5.875C11.8038 5.875 11.1361 6.15156 10.6438 6.64384C10.1516 7.13613 9.875 7.80381 9.875 8.5V15.5C9.875 16.1962 10.1516 16.8639 10.6438 17.3562C11.1361 17.8484 11.8038 18.125 12.5 18.125H19.5C20.1962 18.125 20.8639 17.8484 21.3562 17.3562C21.8484 16.8639 22.125 16.1962 22.125 15.5V8.5C22.125 7.80381 21.8484 7.13613 21.3562 6.64384C20.8639 6.15156 20.1962 5.875 19.5 5.875H12.5Z" fill="white"/>
</g>
</g>
<defs>
<clipPath id="clip0_814_2">
<rect width="32" height="24" fill="white"/>
</clipPath>
<clipPath id="clip1_814_2">
<rect width="14" height="14" fill="white" transform="translate(9 5)"/>
</clipPath>
</defs>
</svg>
